PathFileType	4	(X/Y/Z)	./resultDataOpenSim/trcMotMarkerGrf/sub06/qtm-01-02.trc
DataRate	CameraRate	NumFrames	NumMarkers	Units	OrigDataRate	OrigDataStartFrame	OrigNumFrames
250.000000	250.000000	11	24	m	250.000000	379	504
Frame#	Time	L.Toe.Tip			R.Toe.Tip			L.Ankle.Lat			R.Ankle.Lat			L.Ankle.Med			R.Ankle.Med			L.Heel			R.Heel			L.Knee.Lat			R.Knee.Lat			L.Knee.Med			R.Knee.Med			L.Thigh.Upper			R.Thigh.Upper			L.ASIS			R.ASIS			V.Sacral			L.Acromium			R.Acromium			C7			L.Elbow			R.Elbow			L.Wrist.Lat			R.Wrist.Lat
		X1	Y1	Z1	X2	Y2	Z2	X3	Y3	Z3	X4	Y4	Z4	X5	Y5	Z5	X6	Y6	Z6	X7	Y7	Z7	X8	Y8	Z8	X9	Y9	Z9	X10	Y10	Z10	X11	Y11	Z11	X12	Y12	Z12	X13	Y13	Z13	X14	Y14	Z14	X15	Y15	Z15	X16	Y16	Z16	X17	Y17	Z17	X18	Y18	Z18	X19	Y19	Z19	X20	Y20	Z20	X21	Y21	Z21	X22	Y22	Z22	X23	Y23	Z23	X24	Y24	Z24

379	1.512	1.4427681	0.13125395	-0.069269951	0.80935011	0.034702082	0.1031312	1.3178047	0.10163748	-0.08325232	0.68234253	0.088298656	0.12423257	1.3172751	0.1160835	0.0003479906	0.71309039	0.10813082	0.039930081	1.2716506	0.039353665	-0.034258567	0.62855748	0.083156129	0.062086819	1.1925888	0.44602076	-0.081196027	0.8629044	0.4394676	0.16127419	1.1819765	0.43323681	0.044504994	0.84536147	0.43870588	0.029467159	1.0218086	0.7954305	-0.12495717	0.9535726	0.79372499	0.21501261	1.0838179	0.84351564	-0.071891027	1.0615316	0.84332901	0.1781155	0.88866716	0.91749378	0.039188155	0.98379817	1.3262224	-0.13608585	1.0014533	1.3168459	0.2229681	0.91909965	1.3579732	0.048548496	0.88326408	1.0293673	-0.18523298	1.0246913	1.0057694	0.32971001	0.9645537	0.80631235	-0.23648444	1.2723668	0.97397541	0.29876381
380	1.516	1.4548524	0.13426361	-0.068748732	0.80939937	0.034922361	0.10322072	1.3301111	0.10291541	-0.081997872	0.68323371	0.089391977	0.1247338	1.3294229	0.1177055	0.0014202059	0.71392429	0.10898797	0.04034876	1.2850552	0.039886486	-0.032954315	0.6291984	0.084919174	0.062734937	1.200056	0.44518214	-0.080421637	0.86745284	0.43888322	0.16140044	1.1890271	0.4323607	0.045375751	0.84992696	0.43804134	0.029545504	1.0291767	0.7937201	-0.12523746	0.95953814	0.79253742	0.21451556	1.0911319	0.84214584	-0.071971765	1.0679393	0.84192584	0.17798953	0.89528003	0.91613684	0.038101823	0.99015388	1.3245969	-0.13636796	1.0076415	1.315336	0.22276336	0.92538225	1.3565357	0.048311195	0.88931041	1.0280363	-0.18501048	1.0324169	1.0044807	0.32975544	0.96848614	0.80458038	-0.23729815	1.2801942	0.97434673	0.29776197
381	1.52	1.4664017	0.13676271	-0.068358758	0.80947424	0.035126706	0.1033355	1.3417849	0.10389008	-0.080630606	0.68424435	0.090500512	0.12528758	1.3411745	0.11916397	0.002617022	0.71480952	0.10990066	0.040805356	1.2976911	0.04037406	-0.031589335	0.62992563	0.086765706	0.063381183	1.2075944	0.44445937	-0.079694905	0.87199665	0.43825306	0.16157665	1.1962214	0.43160419	0.046179359	0.85457099	0.43735075	0.029691881	1.0366305	0.79209821	-0.12549233	0.96554273	0.7913347	0.21403952	1.0985359	0.84081301	-0.072058572	1.0744177	0.84052519	0.17785725	0.9021755	0.91481137	0.037160397	0.99656319	1.3229816	-0.13667392	1.0138346	1.3138258	0.22254229	0.9316922	1.3551073	0.048023641	0.89541036	1.0267167	-0.1847812	1.0401126	1.0031889	0.32975812	0.97251113	0.80286079	-0.23809624	1.2879566	0.97457967	0.2967502
382	1.524	1.4774499	0.13873047	-0.068084102	0.80958755	0.035256028	0.10347482	1.3528541	0.10458041	-0.079224254	0.68536779	0.091625663	0.12588408	1.3523992	0.12033191	0.0038794616	0.71575147	0.11087254	0.041297457	1.309617	0.040766214	-0.030047236	0.63075428	0.088693227	0.064004712	1.2152128	0.44381968	-0.079004115	0.87645596	0.43756087	0.16181939	1.2035294	0.43094156	0.046929741	0.85931349	0.43664791	0.029890914	1.0441684	0.79057633	-0.12571389	0.97157431	0.79012637	0.21356217	1.1060135	0.83950463	-0.072135525	1.0809881	0.83913037	0.17771401	0.90920101	0.91350347	0.036445751	1.0030265	1.321384	-0.1370101	1.0200307	1.3123207	0.22230032	0.93803473	1.3536852	0.047683232	0.90158378	1.0254103	-0.18456998	1.0477876	1.0019012	0.32973701	0.97664361	0.80116894	-0.23888534	1.2956502	0.97467131	0.29573427
383	1.528	1.4880134	0.14015855	-0.067821242	0.80973494	0.035304211	0.10363019	1.3633495	0.10502192	-0.077837234	0.68654825	0.092801564	0.1264849	1.3630049	0.12116151	0.0051846379	0.71676159	0.1119029	0.041820011	1.3208783	0.040992853	-0.028164925	0.63167571	0.090709549	0.064625539	1.2229199	0.44322563	-0.078343406	0.88088092	0.43681764	0.16211965	1.2109375	0.4303603	0.047633906	0.86416347	0.4359375	0.030132763	1.0517858	0.78916101	-0.12590475	0.97763011	0.78892004	0.21307437	1.1135104	0.83820756	-0.072165336	1.0876308	0.83774302	0.17757097	0.91624857	0.91221345	0.035876353	1.009547	1.3198075	-0.13737771	1.0262338	1.310827	0.22203853	0.94441012	1.3522823	0.047303419	0.90783175	1.0241184	-0.18438573	1.0554683	1.0006333	0.32973441	0.98089572	0.7995177	-0.23966343	1.3032658	0.97463312	0.29471983
384	1.532	1.4980458	0.1410526	-0.06745773	0.8099126	0.035280378	0.10377391	1.3732802	0.10521059	-0.076479434	0.68769706	0.09408247	0.12703452	1.3730203	0.12164308	0.006529826	0.71785299	0.11299231	0.04237047	1.3314817	0.040987941	-0.025926743	0.6326618	0.092833079	0.065300935	1.2307005	0.44263824	-0.077707876	0.885437	0.43606304	0.16244246	1.2184456	0.42985343	0.048296836	0.86911938	0.43521916	0.030406557	1.0594728	0.78786168	-0.12607185	0.98371563	0.78772335	0.21257907	1.1209862	0.83692272	-0.07212913	1.0942967	0.83636089	0.17745091	0.92326659	0.91094204	0.03533485	1.0161284	1.3182548	-0.1377754	1.0324554	1.3093513	0.22176091	0.95082107	1.3509026	0.046885601	0.914143	1.0228438	-0.18423656	1.0631876	0.99940478	0.3297984	0.98526662	0.79791065	-0.24042258	1.3107974	0.97448029	0.2937098
385	1.536	1.5074381	0.14144382	-0.066929336	0.81012381	0.035186743	0.10386759	1.3826468	0.10510562	-0.075120726	0.68878191	0.095487313	0.12753007	1.3824934	0.12174903	0.0079105686	0.719033	0.11414533	0.042952727	1.3413883	0.040718372	-0.023537928	0.63369325	0.095077413	0.066079079	1.2385359	0.44202492	-0.077089192	0.89028801	0.43533473	0.16274646	1.2260636	0.42941706	0.048920394	0.87418444	0.43448971	0.030689901	1.0672138	0.7866858	-0.12623141	0.98984036	0.7865427	0.21208131	1.1284453	0.83566085	-0.072041304	1.1009583	0.83498089	0.17736719	0.93025466	0.90968102	0.034772292	1.022771	1.31673	-0.13820598	1.0387069	1.3078988	0.22146781	0.95727664	1.3495326	0.046416269	0.92051121	1.0215935	-0.18413471	1.0709427	0.99822172	0.32992848	0.98975036	0.79634396	-0.24115919	1.3182481	0.97422499	0.29270647
386	1.54	1.5161088	0.14138088	-0.066225435	0.81036931	0.035036643	0.10388618	1.3914517	0.10466847	-0.073723609	0.68987417	0.09697843	0.12805327	1.3914102	0.12145743	0.0093165678	0.72030206	0.11536677	0.043574639	1.3505286	0.040196141	-0.021338026	0.6347866	0.097439253	0.066950002	1.2464277	0.44136941	-0.076481303	0.89548801	0.43464325	0.16301353	1.2338166	0.4290495	0.049500022	0.87938176	0.43374465	0.030961574	1.0749907	0.78562643	-0.12640307	0.99601715	0.78537597	0.2115745	1.1359147	0.83442903	-0.071925378	1.1076261	0.83360685	0.17731542	0.93723455	0.90841951	0.034201	1.0294708	1.3152374	-0.13867143	1.0449903	1.3064736	0.22115288	0.96378252	1.3481639	0.045891552	0.92694353	1.0203758	-0.18407816	1.0786738	0.9970656	0.33005215	0.99434528	0.79481397	-0.2418757	1.3256231	0.97387517	0.29171119
387	1.544	1.5240942	0.14088463	-0.065326017	0.81063959	0.034873998	0.10384681	1.3996971	0.1038812	-0.072261125	0.69107227	0.098518146	0.12868464	1.3996862	0.12081053	0.010735202	0.72166305	0.11665631	0.044240477	1.3588532	0.039450695	-0.019564818	0.63598696	0.099909235	0.067859576	1.2543902	0.44067708	-0.075887263	0.9009789	0.43397551	0.16325797	1.2417285	0.42874744	0.050028113	0.88475042	0.43298209	0.031232451	1.0827912	0.78466893	-0.12660022	1.002259	0.78420737	0.21103354	1.1434123	0.83322873	-0.071793986	1.1143273	0.83225071	0.17728479	0.94422948	0.90715234	0.033646093	1.0362222	1.3137801	-0.13916466	1.0513012	1.3050803	0.22080725	0.9703332	1.3468027	0.045330574	0.93345554	1.0192056	-0.18404105	1.0863087	0.99590987	0.33008679	0.9990573	0.79332269	-0.24257421	1.3329243	0.97343131	0.29072555
388	1.548	1.5315255	0.13992284	-0.064144728	0.81092008	0.034754255	0.10380825	1.4073836	0.10274581	-0.070724158	0.6924224	0.10011184	0.12942439	1.4072451	0.11987793	0.012157707	0.7231279	0.11800923	0.044947179	1.3663708	0.038492793	-0.018205944	0.6373345	0.10248833	0.06876645	1.2624361	0.43997072	-0.075313044	0.90666667	0.43330975	0.16350652	1.2497936	0.4285058	0.050501198	0.89032743	0.43220517	0.031552217	1.0906153	0.78380571	-0.1268324	1.0085685	0.78301507	0.21042426	1.1509388	0.83206149	-0.071652111	1.1210955	0.83092094	0.17727263	0.95126525	0.90588236	0.033126168	1.0430231	1.3123604	-0.13967511	1.0576384	1.3037243	0.22042645	0.9769153	1.3454593	0.044756184	0.94005902	1.0181042	-0.18399293	1.0938154	0.99474403	0.330003	1.0038989	0.79187607	-0.24325346	1.3401499	0.97288696	0.28975019
389	1.552	1.5385084	0.13844873	-0.062591921	0.8112035	0.034700958	0.10382375	1.4145143	0.10128729	-0.069131665	0.69392361	0.10178267	0.13022295	1.4141235	0.11865725	0.013584396	0.72471248	0.11942235	0.045688526	1.3731291	0.037312928	-0.017094808	0.63884382	0.10518491	0.069664405	1.2705723	0.43928137	-0.074757969	0.91248708	0.43262736	0.16377738	1.2579804	0.42832272	0.050921616	0.89613643	0.43141979	0.031966043	1.0984683	0.78303045	-0.12710427	1.014943	0.78178966	0.2097351	1.1584915	0.83093148	-0.071505379	1.1279595	0.8296137	0.17728824	0.95836531	0.90462334	0.032650007	1.0498729	1.3109785	-0.1402004	1.0640064	1.3024106	0.22001159	0.98350974	1.3441484	0.044170678	0.94674671	1.017074	-0.18393949	1.1012011	0.99357895	0.32981769	1.0088836	0.79047742	-0.24391113	1.347295	0.97223775	0.28878388
